<?xml version="1.0" encoding="utf-8"?>
<!-- Generator: Adobe Illustrator 28.0.0, SVG Export Plug-In . SVG Version: 6.00 Build 0)  -->
<svg version="1.1" id="圖層_1" xmlns="http://www.w3.org/2000/svg" xmlns:xlink="http://www.w3.org/1999/xlink" x="0px" y="0px"
	 viewBox="0 0 384 512" style="enable-background:new 0 0 384 512;" xml:space="preserve">
<style type="text/css">
	.st0{fill:#3C3C3C;}
	.st1{opacity:0.6;fill:#FFFFFF;}
</style>
<path class="st0" d="M64,422.6c-10.3,0-20-4-27.2-11.3c-15-15-15-39.5,0-54.5L137.5,256L36.7,155.3c-7.3-7.3-11.3-17-11.3-27.2
	s4-20,11.3-27.2c7.3-7.3,17-11.4,27.3-11.4s20,4,27.2,11.3L192,201.5l100.7-100.8c7.3-7.3,16.9-11.3,27.2-11.3
	c10.3,0,20,4,27.2,11.3c7.3,7.3,11.3,17,11.3,27.2s-4,20-11.3,27.2L246.5,256l100.8,100.7c7.3,7.3,11.3,17,11.3,27.2
	c0,10.3-4,20-11.3,27.2c-7.3,7.3-16.9,11.3-27.2,11.3s-20-4-27.2-11.3L192,310.5L91.3,411.3C83.9,418.6,74.2,422.6,64,422.6z"/>
<path class="st1" d="M319.9,94.5c9,0,17.4,3.5,23.7,9.8c13.1,13.1,13.1,34.3,0,47.4L239.4,256l104.3,104.2
	c13.1,13.1,13.1,34.3,0,47.4c-6.3,6.3-14.7,9.8-23.7,9.8s-17.4-3.5-23.7-9.8L192,303.4L87.8,407.8c-6.4,6.3-14.8,9.8-23.8,9.8
	s-17.4-3.5-23.7-9.8c-13.1-13.1-13.1-34.3,0-47.4L144.6,256L40.2,151.8c-13.1-13.1-13.1-34.3,0-47.4C46.6,98,55,94.5,64,94.5
	s17.4,3.5,23.7,9.8L192,208.6l104.2-104.3C302.5,98,311,94.5,319.9,94.5 M319.9,84.5c-11.6,0-22.6,4.5-30.8,12.7L192,194.5
	L94.8,97.2C86.6,89,75.6,84.5,64,84.5s-22.6,4.6-30.9,12.8c-17,17-17,44.6,0,61.5l97.3,97.1l-97.2,97.3c-17,17-17,44.6,0,61.5
	c8.2,8.2,19.1,12.7,30.8,12.7c11.6,0,22.5-4.5,30.8-12.7l0,0l0,0l97.1-97.3l97.2,97.1c8.2,8.2,19.1,12.7,30.8,12.7
	c11.6,0,22.6-4.5,30.8-12.7c17-17,17-44.6,0-61.5l-97.2-97l97.1-97.2c17-17,17-44.6,0-61.5C342.5,89,331.5,84.5,319.9,84.5
	L319.9,84.5z"/>
</svg>
