<?xml version="1.0" encoding="utf-8"?>
<!-- Generator: Adobe Illustrator 28.0.0, SVG Export Plug-In . SVG Version: 6.00 Build 0)  -->
<svg version="1.1" id="圖層_1" xmlns="http://www.w3.org/2000/svg" xmlns:xlink="http://www.w3.org/1999/xlink" x="0px" y="0px"
	 viewBox="0 0 302.2 124.4" style="enable-background:new 0 0 302.2 124.4;" xml:space="preserve">
<style type="text/css">
	.st0{fill-rule:evenodd;clip-rule:evenodd;fill:#1A1918;}
	.st1{fill-rule:evenodd;clip-rule:evenodd;fill:#21609B;}
</style>
<path class="st0" d="M279.4,43.8l12.1,0.1c0,0-22.4,30.1-24.2,32.6c-0.6,0.8-1.5,1.7-2,2.7c-1.2,2.7-2.3,8.5-2.3,8.5l-11,0.1
	c0,0,1.7-6.1,1.6-9.4c-0.1-2.8-1.5-5.7-2.3-8.5c-0.8-2.9-2-8.5-2-8.5h11.3l1.6,6.2L279.4,43.8z"/>
<path class="st0" d="M256.6,50.1c2.2,1.3,3.6,8.7,3.6,8.7s-11.6,0.2-18,0.2h-5.5l-6.6,28.7h-10.2c0,0,6.3-31.2,7.8-36.8
	c0.5-1.8,3.3-1.5,8.1-1.5h7.6C248.4,49.3,254.2,48.7,256.6,50.1z M209.3,64.1c0,0,0.3-1.8-1.1-4c-1.2-1.8-2.3-2.2-5.4-2.3
	c-8.8-0.3-8.7,6.2-8.7,6.2L209.3,64.1z M218.8,56.7c1.3,4.6-1.2,15.5-1.2,15.5s-12.9-0.2-19.9,0c-2.2,0.1-4.8-0.2-5.5,0.8
	c-0.9,1.4,0.3,3.6,1.4,4.5c1.2,1.1,3.6,1.2,4.5,1.3c5.7,0.7,17.7,0.2,17.7,0.2l-2.1,9.1c0,0-16.9,0.8-25.4-1.2
	c-1.7-0.4-3.2-1.2-4.3-2.3c-0.3-0.3-0.5-0.7-0.8-1.1c-0.2-0.3-0.9-1.2-1.1-2c-1.9-5.1,0.2-14.9,2.3-20.2c0.2-0.6,0.6-1.4,0.9-2
	c0.4-0.8,0.8-1.7,1.1-2.2c0.2-0.3,0.5-0.6,0.7-0.9c0.3-0.4,0.6-0.7,0.8-1.1c0.8-0.9,1.7-1.5,2.7-2.3c3.5-2.6,9.9-4.7,17.6-3.9
	c2.9,0.3,7.3,1.3,9.4,4.3C218.2,54,218.5,55.5,218.8,56.7z M172.2,49.3l9.9-0.1c0,0-5.5,25.8-8.3,38.4h-11.3c-7.9,0-15,1-18-4.7
	c-2.9-5.5-0.1-14.4,1.2-20.5c0.9-4.3,2.9-13.1,2.9-13.1l10.2-0.1c0,0-2.9,13.7-4.1,20.6c-0.4,2.5-1.3,4.8-0.4,6.6
	c0.9,1.7,2.1,1.9,5.9,1.9c1.2,0,5.1,0,5.1,0L172.2,49.3z M126.1,67.9c1-3.6,2.5-7.6,2.3-10.9c-0.2-3.5-3.2-6.7-5.1-7.4
	c-5.8-2-11.2,0.8-13.3,3.1c-2.8,3-3.7,6.5-4.7,11.2c-0.7,3.6-1.3,7.3,0,10.1c2.4,4.9,9.7,3.8,17.6,3.9
	C124.1,74.8,125.1,71.3,126.1,67.9z M139.8,53.5c1.1,8.1-3.2,17.1-6.2,24.9c3,0.3,5.7,0,5.9,0.2c0.2,0.3-2,9.3-2.8,9.3
	C134.3,88,126.3,88,123,88c-10.9,0-21,0.7-26.2-4.7c-2.1-2.2-3.6-5.9-3.9-8.5c-0.6-4.4,0.1-9.2,1.2-13.2c0.9-3.6,2.1-7,3.9-10.1
	c4.6-7.9,12.5-13.8,25.8-12.4c2.6,0.3,6.3,1.4,8.6,2.7c0.2,0.1,0.7,0.5,0.8,0.6C136.3,44.5,139.2,49.2,139.8,53.5z M91.7,49.3
	c-0.7,3-1.3,6.3-2,9.3H78.8c0.8-3.2,1.5-6.5,2.3-9.3C84.6,49.3,87.9,49.3,91.7,49.3 M78.4,61.3H89c-1.4,7.6-4.1,19.8-6.3,28.3
	c-1.3,5.3-2.2,9.2-5.9,12c-0.3,0.3-0.5,0.1-0.8,0.4c-0.7,0.6-3.8,1.4-5.5,1.6c-2.8,0.3-5.9,0-9.4,0c0.9-3.2,1.9-7.1,2.7-10
	c8.3,1,8.5-6.8,10.2-14.3C75,74.8,77.9,63,78.4,61.3z"/>
<path class="st1" d="M53.8,81.1l-0.2,0.6c-3.9,7.4-10.7,12-20.4,12.2c-4.6,0.1-8.9-1.1-11.7-2.3c-6.1-2.7-11.3-7.8-14.1-13.2
	c-4-7.7-4.8-18.5,3.6-26.6c0.1,0-1,1.7-0.9,1.7l-0.2,0.7c-6,18.7,12.6,34.8,30.7,33C44.8,86.8,50.4,84.5,53.8,81.1z"/>
<path class="st1" d="M42.8,73.3c4.6,0,9.3-2.1,12.1-5c-2.5,6.2-9.6,10.2-19.2,8.9c-8-1.1-15.6-9.1-16.4-17.1
	c-0.6-5.8,1.5-9.3,4.8-13.5c-1.2,2.2-1.6,3.9-1.7,5C21.2,64.2,32.6,73.2,42.8,73.3z"/>
<path class="st1" d="M54.5,57.6c-0.7,1.6-4.8,4.6-6.6,5c-7.1,1.5-11.7-1.8-14.1-5.7c-0.4-0.6-1-2.1-1.1-2.5
	c-0.9-3.1-0.5-7.9,2.3-10.3c-0.8,2.3-1,5-0.5,6.8c0.3,1.1,1.1,2.9,1.9,4.1c1.5,2.1,2.4,2.6,4.3,3.8c0.9,0.5,1.8,0.9,2.2,1
	C44.6,60.4,48.4,61.8,54.5,57.6z"/>
</svg>
