<svg width="174" height="150" viewBox="0 0 174 150" fill="none" xmlns="http://www.w3.org/2000/svg">
<path d="M2.42279 122.241H36.7856V128.462C36.7856 128.693 36.5807 128.881 36.3308 128.881H2.87761C2.62652 128.881 2.42279 128.692 2.42279 128.462V122.241ZM36.3297 68.4127H13.4443H2.87761C2.62652 68.4127 2.42279 68.601 2.42279 68.8319V75.0527H36.7856V68.8329C36.7856 68.601 36.5808 68.4127 36.3297 68.4127ZM2.42279 119.691H36.7856V105.926V86.9241V77.6036H2.42279V119.691ZM146.947 49.6512V25.5357C146.947 23.1003 144.791 21.1195 142.141 21.1195H19.6367C16.987 21.1195 14.8308 23.1013 14.8308 25.5357V65.8628H36.3297C38.1093 65.8628 39.5575 67.1955 39.5575 68.8319V76.3276V85.6481H106.671V53.0547C106.671 51.1772 108.333 49.6501 110.374 49.6501H146.947V49.6512ZM90.8302 104.65H70.948H39.5586V88.198H106.672V104.65H90.8302ZM83.8801 96.4248C83.8801 94.9058 82.541 93.6744 80.8891 93.6744C79.2372 93.6744 77.898 94.9058 77.898 96.4248C77.898 97.9438 79.2372 99.1752 80.8891 99.1752C82.541 99.1752 83.8801 97.9438 83.8801 96.4248ZM89.4437 117.495V107.2H72.3344V117.495H89.4437ZM106.671 120.183C106.116 120.092 105.55 120.045 104.979 120.045H56.7978C51.5888 120.045 47.3511 123.941 47.3511 128.731V128.881H106.789C106.712 128.607 106.671 128.321 106.671 128.026V120.183ZM171.577 53.0547V128.026C171.577 128.497 171.16 128.881 170.647 128.881H115.811H110.374C109.861 128.881 109.444 128.497 109.444 128.026V119.208C109.445 119.188 109.445 119.17 109.444 119.152V105.925V86.923V53.0547C109.444 52.5838 109.861 52.2 110.374 52.2H148.334H170.648C171.16 52.201 171.577 52.5838 171.577 53.0547ZM142.811 124.253C142.811 123.085 141.781 122.138 140.511 122.138C139.241 122.138 138.211 123.085 138.211 124.253C138.211 125.42 139.241 126.367 140.511 126.367C141.781 126.367 142.811 125.42 142.811 124.253ZM166.262 58.3631C166.262 57.6582 165.643 57.0881 164.876 57.0881H116.146C115.38 57.0881 114.76 57.6582 114.76 58.3631V118.349C114.76 119.054 115.38 119.624 116.146 119.624H164.876C165.643 119.624 166.262 119.054 166.262 118.349V58.3631ZM117.533 117.074H163.49V59.638H117.533V117.074Z" fill="#4C376C"/>
</svg>
